<svg width="535" height="60" viewBox="0 0 535 60" fill="none" xmlns="http://www.w3.org/2000/svg">
<path d="M25 50C38.8071 50 50 38.8071 50 25C50 11.1929 38.8071 0 25 0C11.1929 0 0 11.1929 0 25C0 38.8071 11.1929 50 25 50Z" fill="url(#paint0_linear_1702_1861)"/>
<path d="M11.9062 16.921C19.645 14.9843 27.3655 13.0523 35.105 11.1152C35.5111 12.6856 35.9131 14.241 36.3196 15.8136C30.2766 17.3258 24.2435 18.836 18.2105 20.346C18.2118 20.3556 18.2129 20.365 18.2144 20.3747H36.8955C36.8987 20.443 36.904 20.4982 36.904 20.5539C36.9044 24.6112 36.9064 28.6688 36.9033 32.726C36.9014 34.9917 35.0333 36.9162 32.7411 37.0219C32.5179 37.0323 32.2942 37.0386 32.0707 37.0386C27.1925 37.0397 22.3144 37.0402 17.4366 37.0386C16.2174 37.0382 15.1522 36.6317 14.2818 35.7921C13.4896 35.0275 13.0411 34.0899 12.9724 32.9904C12.9587 32.771 12.9544 32.5508 12.9544 32.331C12.9533 28.7428 12.9516 25.1549 12.9568 21.5671C12.9575 21.1936 12.9159 20.8336 12.8187 20.4712C12.5138 19.3365 12.2275 18.1975 11.9344 17.0597C11.9246 17.0215 11.9187 16.9823 11.9062 16.921ZM14.0846 25.2404V25.4286C14.0846 27.8513 14.0842 30.2743 14.0861 32.6969C14.0861 32.8293 14.0977 32.9628 14.1177 33.0939C14.3748 34.7699 15.7429 35.9269 17.4653 35.9269C22.402 35.9269 27.3388 35.9269 32.2757 35.9263C32.4109 35.9263 32.5463 35.92 32.6809 35.9102C34.4427 35.7839 35.7731 34.3754 35.7731 32.6356C35.7731 30.2415 35.7731 27.848 35.7731 25.4539V25.2404H14.0846ZM17.5394 21.4923C17.5766 21.5517 17.5985 21.5908 17.624 21.6269C18.1794 22.415 18.7368 23.2017 19.2879 23.9928C19.3524 24.0852 19.4155 24.1221 19.5298 24.1212C20.1948 24.1158 20.8598 24.1186 21.5246 24.118C21.5748 24.118 21.6251 24.111 21.6816 24.1065C21.6692 24.0745 21.6664 24.0563 21.6568 24.0428C21.08 23.2206 20.504 22.3973 19.9211 21.5789C19.8864 21.5302 19.7966 21.4971 19.7316 21.4954C19.3727 21.4875 19.0137 21.4915 18.6548 21.4915C18.2922 21.4915 17.9294 21.4923 17.5394 21.4923ZM27.0444 24.1186C27.0038 24.0519 26.9822 24.0112 26.9561 23.9739C26.4 23.1847 25.8414 22.3973 25.2888 21.6056C25.227 21.5173 25.1631 21.4895 25.0585 21.4899C24.3868 21.4941 23.715 21.4919 23.0433 21.4923C22.9996 21.4923 22.9557 21.4965 22.8907 21.4999C22.9222 21.5486 22.9394 21.5771 22.9581 21.6039C23.469 22.3323 23.995 23.0508 24.4837 23.7934C24.6587 24.0591 24.8498 24.1375 25.1566 24.1256C25.7735 24.1015 26.3922 24.1186 27.0444 24.1186ZM28.2316 21.4923C28.2701 21.5536 28.2916 21.5921 28.3168 21.6284C28.8729 22.4171 29.4314 23.2043 29.9829 23.9958C30.0483 24.09 30.1151 24.1217 30.2268 24.1208C30.8864 24.1162 31.5461 24.1186 32.2057 24.118C32.257 24.118 32.3079 24.1117 32.3744 24.1075C32.355 24.0682 32.3457 24.0417 32.3305 24.0199C31.7596 23.206 31.1894 22.3917 30.6129 21.5817C30.5781 21.533 30.4905 21.4971 30.4268 21.4958C30.0444 21.4878 29.6612 21.4919 29.2783 21.4919C28.939 21.4919 28.5996 21.4923 28.2316 21.4923ZM31.6614 15.8267C31.6231 15.7871 31.6087 15.7689 31.5914 15.7541C30.8303 15.1012 30.0698 14.4473 29.3051 13.7982C29.2666 13.7656 29.1875 13.7517 29.1362 13.7641C28.4522 13.93 27.7696 14.1026 27.0864 14.2738C27.0614 14.28 27.0385 14.2928 26.974 14.3186C27.0288 14.3541 27.0607 14.37 27.0868 14.3923C27.7388 14.9486 28.4037 15.4915 29.0351 16.0695C29.2977 16.3099 29.5275 16.3934 29.8814 16.283C30.4563 16.1036 31.0494 15.9804 31.6614 15.8267ZM21.2951 18.4213C21.2674 18.3852 21.2566 18.3647 21.2405 18.3504C20.4916 17.7115 19.7405 17.0754 18.9963 16.4315C18.9037 16.3515 18.8316 16.3391 18.717 16.3689C18.1609 16.5139 17.602 16.6482 17.0446 16.7871C16.9159 16.8191 16.7883 16.8541 16.6261 16.8969C16.809 17.0545 16.9668 17.1899 17.124 17.325C17.7296 17.845 18.3338 18.3665 18.9433 18.8819C18.9962 18.9269 19.0922 18.9662 19.154 18.9515C19.8611 18.7832 20.5655 18.6041 21.2951 18.4213ZM21.8275 15.591C21.847 15.6275 21.85 15.6402 21.8581 15.6469C22.6227 16.3039 23.3863 16.9621 24.1563 17.6132C24.2057 17.6549 24.3103 17.6643 24.3792 17.6478C25.024 17.4934 25.6664 17.3304 26.3094 17.1689C26.3625 17.1558 26.4138 17.1369 26.4883 17.1139C25.7272 16.4623 24.9838 15.8347 24.2535 15.1934C24.0996 15.0584 23.9646 15.0313 23.7811 15.0988C23.6557 15.145 23.5203 15.1652 23.3894 15.1982C22.8733 15.328 22.3572 15.4573 21.8275 15.591ZM14.0931 24.1082H16.3255C16.324 24.0871 16.3272 24.0734 16.322 24.0658C15.7351 23.2297 15.1483 22.3936 14.5583 21.5591C14.5357 21.5271 14.4872 21.4982 14.4487 21.4954C14.3335 21.4871 14.2172 21.4923 14.0935 21.4923L14.0931 24.1082ZM13.9333 20.2638C14.6687 20.0795 15.3866 19.8997 16.1512 19.708C16.0855 19.6601 16.0509 19.6384 16.0201 19.6121C15.3151 19.0113 14.6105 18.4102 13.9064 17.8089C13.6713 17.6082 13.5868 17.5995 13.2842 17.7575C13.4992 18.5871 13.7144 19.4186 13.9333 20.2638ZM33.5735 21.4986C34.1505 22.3176 34.7172 23.1051 35.2616 23.9071C35.3974 24.1071 35.5429 24.1573 35.7618 24.0986V21.4982L33.5735 21.4986ZM34.284 12.4717C33.5761 12.6499 32.8881 12.8226 32.1998 12.9956L32.1835 13.0449C32.2138 13.0634 32.2472 13.0784 32.2737 13.101C32.974 13.6975 33.6807 14.2865 34.3683 14.8967C34.55 15.0576 34.7051 15.1169 34.9335 14.9839C34.7188 14.1538 34.5029 13.3176 34.284 12.4717Z" fill="white"/>
<path d="M22.9362 27.3574C22.9734 27.3748 23.0267 27.3954 23.0762 27.4232C24.5627 28.2663 26.049 29.11 27.5351 29.9535C27.8049 30.1065 28.0745 30.2598 28.344 30.4137C28.5475 30.5302 28.5482 30.6856 28.3421 30.8028C26.8312 31.6622 25.3195 32.5204 23.8084 33.3787C23.564 33.5176 23.3205 33.6574 23.0747 33.7941C22.8642 33.9113 22.728 33.8382 22.728 33.6041C22.7269 31.6043 22.728 29.6043 22.7266 27.6043C22.7266 27.4728 22.7651 27.378 22.9362 27.3574Z" fill="white"/>
<path d="M62.0008 3.5C66.5008 3.5 71.0008 3.59998 75.5008 3.59998C76.5008 3.59998 76.8008 3.90005 77.1008 4.80005C79.7008 13.8 82.3008 22.8 84.9008 31.9C85.0008 32.3 85.1008 32.6 85.3008 33.3C85.5008 32.7 85.6008 32.3 85.7008 32C88.3008 23 90.9008 13.9 93.4008 4.90002C93.7008 4.00002 94.0008 3.69995 95.0008 3.69995C99.1008 3.79995 103.201 3.69995 107.401 3.69995C108.201 3.69995 108.601 3.80005 108.601 4.80005C108.601 18 108.601 31.2 108.601 44.4C108.601 44.6 108.601 44.8 108.501 45.1C105.101 45.1 101.801 45.1 98.5008 45.1C98.5008 35.3 98.5008 25.5 98.5008 15.4C95.7008 25.5 93.0008 35.3 90.2008 45.2C87.9008 45.2 85.6008 45.2 83.3008 45.2C82.1008 45.2 80.6008 45.5 79.8008 44.9C79.1008 44.4 79.0008 42.8 78.7008 41.7C76.4008 33.4 74.0008 25.1 71.7008 16.7C71.6008 16.3 71.5008 15.9 71.2008 15.3C71.3008 20.5 71.5008 25.4 71.6008 30.3C71.7008 35.2 71.6008 40.1 71.6008 45.1C68.3008 45.1 65.0008 45.1 61.8008 45.1C62.0008 31.2 62.0008 17.3 62.0008 3.5Z" fill="url(#paint1_linear_1702_1861)"/>
<path d="M410.001 59C410.001 50.3 410.001 41.6 410.001 32.8C411.801 32.8 413.501 32.8 415.201 32.8C416.501 32.8 417.901 32.9 419.201 32.8C420.501 32.7 421.401 32.9 421.801 34.4C422.301 36.1 423.701 36.7999 425.401 36.6999C427.101 36.5999 428.301 35.6999 428.701 34.1999C429.001 32.8999 429.701 32.7 430.801 32.8C433.501 32.9 436.301 32.8 439.001 32.8C439.401 32.8 439.801 32.8 440.401 32.8C439.701 37.6 438.301 41.7 434.101 44.3C430.101 46.7 424.901 45.8999 421.601 42.6999C421.401 42.4999 421.101 42.2999 421.001 42.1999C421.001 47.7999 421.001 53.4999 421.001 59.0999C417.301 58.9999 413.701 59 410.001 59Z" fill="url(#paint2_linear_1702_1861)"/>
<path d="M213.801 0C214.101 0.1 214.301 0.200049 214.601 0.300049C217.201 1.00005 218.101 2.20002 218.101 4.90002C218.101 7.70002 217.101 9.1 214.301 9.5C212.601 9.7 210.801 9.59995 209.201 9.19995C207.201 8.69995 206.501 7.30002 206.501 4.90002C206.501 2.40002 207.301 1.2 209.201 0.5C209.701 0.3 210.101 0.2 210.601 0C211.601 0 212.701 0 213.801 0Z" fill="url(#paint3_linear_1702_1861)"/>
<path d="M522.301 26.7C516.601 26.7 511.201 26.7 505.501 26.7C505.901 26.1 506.101 25.5 506.501 25.1C507.201 24.3 507.201 23.6 506.601 22.7C502.801 16.8 499.101 10.9 495.401 5.00001C495.201 4.60001 494.901 4.19999 494.601 3.59999C495.201 3.59999 495.701 3.59999 496.101 3.59999C499.301 3.59999 502.501 3.59999 505.701 3.59999C506.501 3.59999 507.001 3.89999 507.401 4.59999C509.401 8.09999 511.401 11.6 513.401 15.1C513.601 15.5 513.901 15.9 514.201 16.4C515.301 14.4 516.301 12.6001 517.301 10.8001C518.501 8.70006 519.701 6.50004 520.901 4.40004C521.101 4.00004 521.601 3.59999 522.001 3.59999C525.901 3.49999 529.701 3.59999 533.901 3.59999C533.601 4.19999 533.401 4.60001 533.101 5.00001C529.301 11.2 525.601 17.3 521.701 23.5C521.101 24.5 521.001 25.3 521.801 26.1C522.101 26.2 522.101 26.4 522.301 26.7Z" fill="url(#paint4_linear_1702_1861)"/>
<path d="M483.901 26.7C480.201 26.7 476.601 26.7 473.001 26.7C472.501 24.2 472.601 21.2 469.101 21.1C467.101 21 465.101 21.6 464.101 26.7C460.501 26.7 456.801 26.7 453.001 26.7C453.001 18.2 453.001 9.69998 453.001 1.09998C456.501 1.09998 460.101 1.09998 464.001 1.09998C463.901 6.39998 463.701 11.6 463.601 17.1C468.101 11.4 473.701 11 479.401 14.4C484.101 17 484.101 21.9 483.901 26.7Z" fill="url(#paint5_linear_1702_1861)"/>
<path d="M320.001 26.7C316.701 26.7 313.401 26.7 310.101 26.7C310.101 23 310.101 19.3 310.101 15.3C309.001 19.3 307.901 23 306.901 26.7C304.201 26.7 301.601 26.7 298.901 26.7C299.001 26.3 299.001 26 299.101 25.6C301.101 18.6 303.101 11.6 305.101 4.59998C305.301 3.79998 305.701 3.5 306.601 3.5C310.801 3.6 314.901 3.5 319.101 3.5C319.801 3.5 320.301 3.50002 320.301 4.40002C320.301 11.6 320.301 18.9 320.301 26.1C320.201 26.3 320.101 26.5 320.001 26.7Z" fill="url(#paint6_linear_1702_1861)"/>
<path d="M294.901 26.8C292.101 26.8 289.501 26.8 286.901 26.8C286.601 26.8 286.101 26.3 286.001 25.9C285.101 22.8 284.201 19.6 283.301 16.4C283.201 16.1 283.101 15.8 282.801 15.5C283.001 19.2 283.201 22.9 283.401 26.7C280.101 26.7 276.901 26.7 273.601 26.7C273.601 19.1 273.601 11.4 273.601 3.69995C273.901 3.69995 274.201 3.59998 274.501 3.59998C278.701 3.59998 283.001 3.59998 287.201 3.59998C287.901 3.59998 288.201 3.70002 288.501 4.40002C290.601 11.6 292.701 18.8 294.701 26C294.801 26.2 294.801 26.4 294.901 26.8Z" fill="url(#paint7_linear_1702_1861)"/>
<path d="M440.501 26.6999C436.701 26.6999 433.101 26.6999 429.501 26.6999C429.001 23.9999 428.701 20.9999 425.001 21.0999C422.601 21.0999 421.701 22.3999 421.001 26.6999C417.401 26.6999 413.801 26.6999 410.101 26.6999C410.101 24.3999 410.101 22.1 410.101 19.9C410.101 17.7 410.101 15.4 410.101 13C413.001 13 415.701 13 418.501 13C418.801 13 419.201 13.3999 419.301 13.6999C419.801 14.7999 420.201 15.9 420.601 17C420.801 17.1 420.901 17.1999 421.101 17.1999C421.201 16.8999 421.301 16.6 421.401 16.4C425.201 10.5 435.001 10.7 438.601 18C439.801 20.7 440.501 23.5999 440.501 26.6999Z" fill="url(#paint8_linear_1702_1861)"/>
<path d="M260.501 26.6999C250.301 26.6999 240.201 26.6999 230.201 26.6999C230.201 19.0999 235.501 13.2999 243.001 12.4999C246.301 12.1999 249.701 12.2999 252.801 13.5999C257.901 15.6999 260.901 20.7999 260.501 26.6999ZM250.601 25C250.401 21.6 248.701 19.9 245.701 20C243.101 20.1 241.301 22.1 241.301 25C244.401 25 247.501 25 250.601 25Z" fill="url(#paint9_linear_1702_1861)"/>
<path d="M344.101 26.6999C340.401 26.6999 336.801 26.6999 333.101 26.6999C333.501 21.8999 335.101 17.9 339.101 15C344.201 11.4 354.201 10.9999 359.701 16.1999C362.701 18.9999 364.201 22.4999 364.501 26.6999C360.801 26.6999 357.201 26.6999 353.501 26.6999C353.301 25.7999 353.201 24.9999 352.901 24.0999C352.301 21.7999 350.901 20.6999 348.801 20.6999C346.701 20.6999 345.301 21.7999 344.601 24.0999C344.501 24.8999 344.301 25.6999 344.101 26.6999Z" fill="url(#paint10_linear_1702_1861)"/>
<path d="M152.901 26.6999C149.301 26.6999 145.701 26.6999 142.101 26.6999C141.801 25.5999 141.601 24.5 141.301 23.5C140.701 21.7 139.501 20.7999 137.601 20.6999C135.701 20.5999 134.301 21.3999 133.601 23.1999C133.201 24.2999 132.901 25.5 132.601 26.8C129.001 26.8 125.401 26.8 121.701 26.8C122.201 21.5 124.101 17.2 128.901 14.5C134.901 11.2 143.301 11.9999 148.301 16.1999C151.001 18.4999 153.201 23.3999 152.901 26.6999Z" fill="url(#paint11_linear_1702_1861)"/>
<path d="M364.401 32.8C363.701 37.2 361.901 40.7999 358.201 43.1999C353.101 46.5999 343.501 46.7999 338.201 41.9999C335.501 39.5999 334.001 36.5 333.401 32.9C337.101 32.9 340.801 32.9 344.401 32.9C344.601 33.6 344.801 34.3 345.101 34.9C345.901 36.7 347.301 37.5 349.101 37.4C351.001 37.3 352.301 36.2999 352.701 34.4999C353.001 32.8999 353.801 32.5999 355.301 32.6999C358.201 32.8999 361.201 32.8 364.401 32.8Z" fill="url(#paint12_linear_1702_1861)"/>
<path d="M121.801 32.8C125.601 32.8 129.201 32.8 132.801 32.8C133.101 33.6 133.301 34.3 133.601 34.9C134.401 36.6 135.801 37.4 137.601 37.3C139.401 37.2 140.601 36.2 141.201 34.6C141.901 32.7 141.901 32.7 144.001 32.7C146.501 32.7 149.001 32.7 151.501 32.7C151.901 32.7 152.301 32.7 152.901 32.7C152.201 37.2 150.301 40.7 146.601 43.2C141.701 46.4 131.901 46.8 126.501 41.8C123.901 39.4 122.401 36.4 121.801 32.8Z" fill="url(#paint13_linear_1702_1861)"/>
<path d="M399.501 12.8C399.201 16.2 398.901 19.6 398.501 23C396.601 23 394.701 22.9 392.901 23C390.801 23.1 389.301 24.2 388.401 26.1C388.301 26.4 387.901 26.6999 387.601 26.6999C384.101 26.6999 380.501 26.6999 377.001 26.6999C377.001 22.0999 377.001 17.5 377.001 12.9C379.601 12.9 382.101 12.9 384.601 12.9C384.901 12.9 385.201 13.3999 385.301 13.6999C385.801 15.0999 386.301 16.5 386.901 18.3C390.101 13.8 393.901 11.4 399.501 12.8Z" fill="url(#paint14_linear_1702_1861)"/>
<path d="M230.201 32.8C233.701 32.8 237.101 32.8 240.401 32.8C240.701 32.8 241.101 33.2 241.201 33.4C242.201 36.4 244.401 37.5 247.301 37.7C250.701 37.9 254.001 37.2 257.201 35.9C257.601 35.7 258.001 35.6 258.601 35.3C258.601 37.4 258.601 39.3 258.601 41.2C258.601 43.4 258.601 43.5 256.601 44.1C250.101 46.1 243.601 46.5 237.401 43.4C233.101 41.3 230.901 37.6 230.201 32.8Z" fill="url(#paint15_linear_1702_1861)"/>
<path d="M169.401 32.8C172.501 32.8 175.501 32.8 178.701 32.8C178.801 33.5 179.001 34.2 179.101 35C179.301 34.2 179.401 33.6 179.501 32.8C182.701 32.8 185.901 32.8 189.201 32.8C188.801 33.9 188.501 34.9 188.101 35.9C187.101 38.7 186.001 41.4 185.001 44.2C184.801 44.8 184.501 45.1 183.801 45.1C180.801 45.1 177.701 45.1 174.701 45.1C174.301 45.1 173.801 44.8 173.701 44.5C172.201 40.7 170.801 37 169.401 33.2C169.401 33.1 169.401 33 169.401 32.8Z" fill="url(#paint16_linear_1702_1861)"/>
<path d="M287.901 32.8C293.801 32.8 299.401 32.8 305.201 32.8C304.401 35.7 303.601 38.6 302.801 41.5C302.501 42.7 302.401 44.2 301.701 44.8C300.901 45.4 299.401 45 298.201 45C296.001 45 293.701 45 291.301 45C290.201 41 289.101 37 287.901 32.8Z" fill="url(#paint17_linear_1702_1861)"/>
<path d="M514.701 32.8C518.501 32.8 522.201 32.8 525.801 32.8C526.201 32.8 526.701 33.1 526.901 33.4C529.501 37.2 532.101 41 534.901 45C534.501 45.1 534.201 45.1 533.901 45.1C530.301 45.1 526.701 45.1 523.201 45.1C522.701 45.1 522.101 44.8 521.901 44.5C519.601 40.9 517.401 37.2 515.101 33.6C515.001 33.3 514.901 33.1 514.701 32.8Z" fill="url(#paint18_linear_1702_1861)"/>
<path d="M513.801 32.8C511.801 36.2 509.701 39.2 508.001 42.4C506.901 44.5 505.501 45.3 503.101 45.1C500.101 44.8 497.101 45 493.801 45C495.001 43.1 496.101 41.4 497.201 39.7C498.501 37.6 499.801 35.6 501.201 33.5C501.401 33.1 501.901 32.7 502.301 32.7C506.001 32.7 509.801 32.8 513.801 32.8Z" fill="url(#paint19_linear_1702_1861)"/>
<path d="M206.801 26.7C206.801 22.1 206.801 17.6 206.801 13.1C210.401 13.1 214.001 13.1 217.601 13.1C217.601 17.6 217.601 22.1 217.601 26.7C214.001 26.7 210.501 26.7 206.801 26.7Z" fill="url(#paint20_linear_1702_1861)"/>
<path d="M185.401 13C189.201 13 192.901 13 196.801 13C195.901 15.5 195.001 17.9 194.101 20.3C193.401 22.2 192.701 24 192.001 25.9C191.801 26.3 191.401 26.7 191.001 26.7C187.901 26.8 184.801 26.7 181.401 26.7C182.701 22.1 184.001 17.6 185.401 13Z" fill="url(#paint21_linear_1702_1861)"/>
<path d="M177.101 26.8C173.801 26.8 170.701 26.8 167.501 26.8C167.201 26.8 166.801 26.5 166.701 26.2C165.001 21.9 163.401 17.6 161.801 13.2C165.601 13.2 169.301 13.2 173.201 13.2C174.501 17.5 175.701 22.1 177.101 26.8Z" fill="url(#paint22_linear_1702_1861)"/>
<path d="M206.801 32.8C210.501 32.8 214.001 32.8 217.601 32.8C217.601 36.9 217.601 40.9 217.601 44.9C214.001 44.9 210.401 44.9 206.801 44.9C206.801 40.9 206.801 36.9 206.801 32.8Z" fill="url(#paint23_linear_1702_1861)"/>
<path d="M377.101 32.8C380.801 32.8 384.301 32.8 387.901 32.8C387.901 36.9 387.901 40.9 387.901 45C384.301 45 380.701 45 377.101 45C377.101 40.9 377.101 36.9 377.101 32.8Z" fill="url(#paint24_linear_1702_1861)"/>
<path d="M463.901 32.8C463.901 36.9 463.901 40.9 463.901 44.9C460.301 44.9 456.701 44.9 453.101 44.9C453.101 40.9 453.101 36.8 453.101 32.8C456.701 32.8 460.201 32.8 463.901 32.8Z" fill="url(#paint25_linear_1702_1861)"/>
<path d="M483.901 32.8C483.901 36.8 483.901 40.8 483.901 44.9C480.301 44.9 476.701 44.9 473.001 44.9C473.001 40.9 473.001 36.9 473.001 32.8C476.601 32.8 480.201 32.8 483.901 32.8Z" fill="url(#paint26_linear_1702_1861)"/>
<path d="M320.101 32.9C320.101 37 320.101 41 320.101 45C316.701 45 313.401 45 310.001 45C310.001 41 310.001 37 310.001 32.9C313.401 32.9 316.701 32.9 320.101 32.9Z" fill="url(#paint27_linear_1702_1861)"/>
<path d="M283.201 45C279.901 45 276.801 45 273.601 45C273.601 41 273.601 36.9 273.601 32.8C276.801 32.8 280.001 32.8 283.201 32.8C283.201 36.9 283.201 40.9 283.201 45Z" fill="url(#paint28_linear_1702_1861)"/>
<defs>
<linearGradient id="paint0_linear_1702_1861" x1="1.23763" y1="33.5367" x2="55.7552" y2="14.7937" gradientUnits="userSpaceOnUse">
<stop stop-color="#F89E00"/>
<stop offset="1" stop-color="#DA2F68"/>
</linearGradient>
<linearGradient id="paint1_linear_1702_1861" x1="60.3564" y1="48.8721" x2="554.589" y2="20.6357" gradientUnits="userSpaceOnUse">
<stop stop-color="#F89E00"/>
<stop offset="1" stop-color="#DA2F68"/>
</linearGradient>
<linearGradient id="paint2_linear_1702_1861" x1="60.3564" y1="48.8721" x2="554.589" y2="20.6357" gradientUnits="userSpaceOnUse">
<stop stop-color="#F89E00"/>
<stop offset="1" stop-color="#DA2F68"/>
</linearGradient>
<linearGradient id="paint3_linear_1702_1861" x1="60.3564" y1="48.8721" x2="554.589" y2="20.6357" gradientUnits="userSpaceOnUse">
<stop stop-color="#F89E00"/>
<stop offset="1" stop-color="#DA2F68"/>
</linearGradient>
<linearGradient id="paint4_linear_1702_1861" x1="60.3564" y1="48.8721" x2="554.589" y2="20.6357" gradientUnits="userSpaceOnUse">
<stop stop-color="#F89E00"/>
<stop offset="1" stop-color="#DA2F68"/>
</linearGradient>
<linearGradient id="paint5_linear_1702_1861" x1="60.3564" y1="48.8721" x2="554.589" y2="20.6357" gradientUnits="userSpaceOnUse">
<stop stop-color="#F89E00"/>
<stop offset="1" stop-color="#DA2F68"/>
</linearGradient>
<linearGradient id="paint6_linear_1702_1861" x1="60.3564" y1="48.8721" x2="554.589" y2="20.6357" gradientUnits="userSpaceOnUse">
<stop stop-color="#F89E00"/>
<stop offset="1" stop-color="#DA2F68"/>
</linearGradient>
<linearGradient id="paint7_linear_1702_1861" x1="60.3564" y1="48.8721" x2="554.589" y2="20.6357" gradientUnits="userSpaceOnUse">
<stop stop-color="#F89E00"/>
<stop offset="1" stop-color="#DA2F68"/>
</linearGradient>
<linearGradient id="paint8_linear_1702_1861" x1="60.3564" y1="48.8721" x2="554.589" y2="20.6357" gradientUnits="userSpaceOnUse">
<stop stop-color="#F89E00"/>
<stop offset="1" stop-color="#DA2F68"/>
</linearGradient>
<linearGradient id="paint9_linear_1702_1861" x1="60.3564" y1="48.8721" x2="554.589" y2="20.6357" gradientUnits="userSpaceOnUse">
<stop stop-color="#F89E00"/>
<stop offset="1" stop-color="#DA2F68"/>
</linearGradient>
<linearGradient id="paint10_linear_1702_1861" x1="60.3564" y1="48.8721" x2="554.589" y2="20.6357" gradientUnits="userSpaceOnUse">
<stop stop-color="#F89E00"/>
<stop offset="1" stop-color="#DA2F68"/>
</linearGradient>
<linearGradient id="paint11_linear_1702_1861" x1="60.3564" y1="48.8721" x2="554.589" y2="20.6357" gradientUnits="userSpaceOnUse">
<stop stop-color="#F89E00"/>
<stop offset="1" stop-color="#DA2F68"/>
</linearGradient>
<linearGradient id="paint12_linear_1702_1861" x1="60.3564" y1="48.8721" x2="554.589" y2="20.6357" gradientUnits="userSpaceOnUse">
<stop stop-color="#F89E00"/>
<stop offset="1" stop-color="#DA2F68"/>
</linearGradient>
<linearGradient id="paint13_linear_1702_1861" x1="60.3564" y1="48.8721" x2="554.589" y2="20.6357" gradientUnits="userSpaceOnUse">
<stop stop-color="#F89E00"/>
<stop offset="1" stop-color="#DA2F68"/>
</linearGradient>
<linearGradient id="paint14_linear_1702_1861" x1="60.3564" y1="48.8721" x2="554.589" y2="20.6357" gradientUnits="userSpaceOnUse">
<stop stop-color="#F89E00"/>
<stop offset="1" stop-color="#DA2F68"/>
</linearGradient>
<linearGradient id="paint15_linear_1702_1861" x1="60.3564" y1="48.8721" x2="554.589" y2="20.6357" gradientUnits="userSpaceOnUse">
<stop stop-color="#F89E00"/>
<stop offset="1" stop-color="#DA2F68"/>
</linearGradient>
<linearGradient id="paint16_linear_1702_1861" x1="60.3564" y1="48.8721" x2="554.589" y2="20.6357" gradientUnits="userSpaceOnUse">
<stop stop-color="#F89E00"/>
<stop offset="1" stop-color="#DA2F68"/>
</linearGradient>
<linearGradient id="paint17_linear_1702_1861" x1="60.3564" y1="48.8721" x2="554.589" y2="20.6357" gradientUnits="userSpaceOnUse">
<stop stop-color="#F89E00"/>
<stop offset="1" stop-color="#DA2F68"/>
</linearGradient>
<linearGradient id="paint18_linear_1702_1861" x1="60.3564" y1="48.8721" x2="554.589" y2="20.6357" gradientUnits="userSpaceOnUse">
<stop stop-color="#F89E00"/>
<stop offset="1" stop-color="#DA2F68"/>
</linearGradient>
<linearGradient id="paint19_linear_1702_1861" x1="60.3564" y1="48.8721" x2="554.589" y2="20.6357" gradientUnits="userSpaceOnUse">
<stop stop-color="#F89E00"/>
<stop offset="1" stop-color="#DA2F68"/>
</linearGradient>
<linearGradient id="paint20_linear_1702_1861" x1="60.3564" y1="48.8721" x2="554.589" y2="20.6357" gradientUnits="userSpaceOnUse">
<stop stop-color="#F89E00"/>
<stop offset="1" stop-color="#DA2F68"/>
</linearGradient>
<linearGradient id="paint21_linear_1702_1861" x1="60.3564" y1="48.8721" x2="554.589" y2="20.6357" gradientUnits="userSpaceOnUse">
<stop stop-color="#F89E00"/>
<stop offset="1" stop-color="#DA2F68"/>
</linearGradient>
<linearGradient id="paint22_linear_1702_1861" x1="60.3564" y1="48.8721" x2="554.589" y2="20.6357" gradientUnits="userSpaceOnUse">
<stop stop-color="#F89E00"/>
<stop offset="1" stop-color="#DA2F68"/>
</linearGradient>
<linearGradient id="paint23_linear_1702_1861" x1="60.3564" y1="48.8721" x2="554.589" y2="20.6357" gradientUnits="userSpaceOnUse">
<stop stop-color="#F89E00"/>
<stop offset="1" stop-color="#DA2F68"/>
</linearGradient>
<linearGradient id="paint24_linear_1702_1861" x1="60.3564" y1="48.8721" x2="554.589" y2="20.6357" gradientUnits="userSpaceOnUse">
<stop stop-color="#F89E00"/>
<stop offset="1" stop-color="#DA2F68"/>
</linearGradient>
<linearGradient id="paint25_linear_1702_1861" x1="60.3564" y1="48.8721" x2="554.589" y2="20.6357" gradientUnits="userSpaceOnUse">
<stop stop-color="#F89E00"/>
<stop offset="1" stop-color="#DA2F68"/>
</linearGradient>
<linearGradient id="paint26_linear_1702_1861" x1="60.3564" y1="48.8721" x2="554.589" y2="20.6357" gradientUnits="userSpaceOnUse">
<stop stop-color="#F89E00"/>
<stop offset="1" stop-color="#DA2F68"/>
</linearGradient>
<linearGradient id="paint27_linear_1702_1861" x1="60.3564" y1="48.8721" x2="554.589" y2="20.6357" gradientUnits="userSpaceOnUse">
<stop stop-color="#F89E00"/>
<stop offset="1" stop-color="#DA2F68"/>
</linearGradient>
<linearGradient id="paint28_linear_1702_1861" x1="60.3564" y1="48.8721" x2="554.589" y2="20.6357" gradientUnits="userSpaceOnUse">
<stop stop-color="#F89E00"/>
<stop offset="1" stop-color="#DA2F68"/>
</linearGradient>
</defs>
</svg>
